<?xml version="1.0" encoding="UTF-8" standalone="no"?>
<svg
   xmlns:dc="http://purl.org/dc/elements/1.1/"
   xmlns:cc="http://creativecommons.org/ns#"
   xmlns:rdf="http://www.w3.org/1999/02/22-rdf-syntax-ns#"
   xmlns:svg="http://www.w3.org/2000/svg"
   xmlns="http://www.w3.org/2000/svg"
   xmlns:sodipodi="http://sodipodi.sourceforge.net/DTD/sodipodi-0.dtd"
   xmlns:inkscape="http://www.inkscape.org/namespaces/inkscape"
   enable-background="new 0 0 24 24"
   height="24"
   viewBox="0 0 24 24"
   width="24"
   version="1.1"
   id="svg18"
   sodipodi:docname="replay_30-24px.svg"
   inkscape:version="0.92.4 5da689c313, 2019-01-14">
  <metadata
     id="metadata24">
    <rdf:RDF>
      <cc:Work
         rdf:about="">
        <dc:format>image/svg+xml</dc:format>
        <dc:type
           rdf:resource="http://purl.org/dc/dcmitype/StillImage" />
      </cc:Work>
    </rdf:RDF>
  </metadata>
  <defs
     id="defs22" />
  <sodipodi:namedview
     pagecolor="#ffffff"
     bordercolor="#666666"
     borderopacity="1"
     objecttolerance="10"
     gridtolerance="10"
     guidetolerance="10"
     inkscape:pageopacity="0"
     inkscape:pageshadow="2"
     inkscape:window-width="1920"
     inkscape:window-height="1024"
     id="namedview20"
     showgrid="false"
     inkscape:zoom="9.8333333"
     inkscape:cx="-4.779661"
     inkscape:cy="11.186441"
     inkscape:window-x="0"
     inkscape:window-y="28"
     inkscape:window-maximized="1"
     inkscape:current-layer="g14" />
  <g
     id="g4">
    <rect
       fill="none"
       height="24"
       width="24"
       id="rect2" />
  </g>
  <g
     id="g16">
    <g
       id="g14">
      <path
         d="M 12,5 V 1 l -5,5 5,5 V 7 c 3.31,0 6,2.69 6,6 0,3.31 -2.69,6 -6,6 C 8.69,19 6,16.31 6,13 H 4 c 0,4.42 3.58,8 8,8 4.42,0 8,-3.58 8,-8 0,-4.42 -3.58,-8 -8,-8 z"
         id="path6"
         style="fill:#ffc600;fill-opacity:1"
         inkscape:connector-curvature="0" />
      <g
         id="g12"
         style="fill:#ffc600;fill-opacity:1">
        <path
           d="m 9.56,13.49 h 0.45 c 0.21,0 0.37,-0.05 0.48,-0.16 0.11,-0.11 0.16,-0.25 0.16,-0.43 0,-0.08 -0.01,-0.15 -0.04,-0.22 -0.03,-0.07 -0.06,-0.12 -0.11,-0.17 -0.05,-0.05 -0.11,-0.09 -0.18,-0.11 -0.07,-0.02 -0.16,-0.04 -0.25,-0.04 -0.08,0 -0.15,0.01 -0.22,0.03 -0.07,0.02 -0.13,0.05 -0.18,0.1 C 9.62,12.54 9.58,12.58 9.55,12.64 9.52,12.7 9.5,12.77 9.5,12.84 H 8.65 c 0,-0.18 0.04,-0.34 0.11,-0.48 0.07,-0.14 0.17,-0.27 0.3,-0.37 0.13,-0.1 0.27,-0.18 0.44,-0.23 0.17,-0.05 0.35,-0.08 0.54,-0.08 0.21,0 0.41,0.03 0.59,0.08 0.18,0.05 0.33,0.13 0.46,0.23 0.13,0.1 0.23,0.23 0.3,0.38 0.07,0.15 0.11,0.33 0.11,0.53 0,0.09 -0.01,0.18 -0.04,0.27 -0.03,0.09 -0.07,0.17 -0.13,0.25 -0.06,0.08 -0.12,0.15 -0.2,0.22 -0.08,0.07 -0.17,0.12 -0.28,0.17 0.24,0.09 0.42,0.21 0.54,0.39 0.12,0.18 0.18,0.38 0.18,0.61 0,0.2 -0.04,0.38 -0.12,0.53 -0.08,0.15 -0.18,0.29 -0.32,0.39 -0.14,0.1 -0.29,0.19 -0.48,0.24 -0.19,0.05 -0.38,0.08 -0.6,0.08 -0.18,0 -0.36,-0.02 -0.53,-0.07 C 9.35,15.93 9.19,15.86 9.06,15.75 8.93,15.64 8.81,15.52 8.73,15.37 8.65,15.22 8.61,15.03 8.61,14.82 h 0.85 c 0,0.08 0.02,0.15 0.05,0.22 0.03,0.07 0.07,0.12 0.13,0.17 0.06,0.05 0.12,0.09 0.2,0.11 0.08,0.02 0.16,0.04 0.25,0.04 0.1,0 0.19,-0.01 0.27,-0.04 0.08,-0.03 0.15,-0.07 0.2,-0.12 0.05,-0.05 0.1,-0.11 0.13,-0.18 0.03,-0.07 0.04,-0.15 0.04,-0.24 0,-0.11 -0.02,-0.21 -0.05,-0.29 -0.03,-0.08 -0.08,-0.15 -0.14,-0.2 -0.06,-0.05 -0.13,-0.09 -0.22,-0.11 -0.09,-0.02 -0.18,-0.04 -0.29,-0.04 H 9.56 Z"
           id="path8"
           inkscape:connector-curvature="0"
           style="fill:#ffc600;fill-opacity:1" />
        <path
           d="m 15.3,14.24 c 0,0.32 -0.03,0.6 -0.1,0.82 -0.07,0.22 -0.17,0.42 -0.29,0.57 -0.12,0.15 -0.28,0.26 -0.45,0.33 -0.17,0.07 -0.37,0.1 -0.59,0.1 -0.22,0 -0.41,-0.03 -0.59,-0.1 -0.18,-0.07 -0.33,-0.18 -0.46,-0.33 -0.13,-0.15 -0.23,-0.34 -0.3,-0.57 -0.07,-0.23 -0.11,-0.5 -0.11,-0.82 V 13.5 c 0,-0.32 0.03,-0.6 0.1,-0.82 0.07,-0.22 0.17,-0.42 0.29,-0.57 0.12,-0.15 0.28,-0.26 0.45,-0.33 0.17,-0.07 0.37,-0.1 0.59,-0.1 0.22,0 0.41,0.03 0.59,0.1 0.18,0.07 0.33,0.18 0.46,0.33 0.13,0.15 0.23,0.34 0.3,0.57 0.07,0.23 0.11,0.5 0.11,0.82 z m -0.85,-0.86 c 0,-0.19 -0.01,-0.35 -0.04,-0.48 -0.03,-0.13 -0.07,-0.23 -0.12,-0.31 -0.05,-0.08 -0.11,-0.14 -0.19,-0.17 -0.08,-0.03 -0.16,-0.05 -0.25,-0.05 -0.09,0 -0.18,0.02 -0.25,0.05 -0.07,0.03 -0.14,0.09 -0.19,0.17 -0.05,0.08 -0.09,0.18 -0.12,0.31 -0.03,0.13 -0.04,0.29 -0.04,0.48 v 0.97 c 0,0.19 0.01,0.35 0.04,0.48 0.03,0.13 0.07,0.24 0.12,0.32 0.05,0.08 0.11,0.14 0.19,0.17 0.08,0.03 0.16,0.05 0.25,0.05 0.09,0 0.18,-0.02 0.25,-0.05 0.07,-0.03 0.14,-0.09 0.19,-0.17 0.05,-0.08 0.09,-0.19 0.11,-0.32 0.03,-0.13 0.04,-0.29 0.04,-0.48 v -0.97 z"
           id="path10"
           inkscape:connector-curvature="0"
           style="fill:#ffc600;fill-opacity:1" />
      </g>
    </g>
  </g>
</svg>
